<svg xmlns="http://www.w3.org/2000/svg" width="26.585" height="34.575" viewBox="0 0 26.585 34.575"><g transform="translate(0 -1.749)"><g transform="translate(2.398 6.81)"><path d="M10.975,0V24.895L0,19.023V8.364A11.106,11.106,0,0,1,3.176,4C5.58,1.936,10.975,0,10.975,0Z" transform="translate(21.705 24.895) rotate(180)" fill="current-color"/><path d="M10.975,24.895V0L0,5.872V16.531a11.106,11.106,0,0,0,3.176,4.36C5.58,22.959,10.975,24.895,10.975,24.895Z" fill="current-color"/></g><g transform="translate(0 0)"><g transform="translate(2.683 2.481) rotate(-30)"><rect width="1.463" height="12.194" transform="translate(0 0)" fill="current-color"/><rect width="0.976" height="22.681" transform="translate(0.244 12.438)" fill="current-color"/><path d="M.015,0H.99s-.119,1.023.262,1.436S3.8.984,4.4,1.463s.373,1.4-.725,1.891a4.4,4.4,0,0,1-3.112.331C-.142,3.369.015,0,.015,0Z" transform="translate(0.229 35.363)" fill="current-color"/></g><g transform="translate(19.606 0) rotate(30)"><rect width="1.463" height="12.194" transform="translate(3.498 0)" fill="current-color"/><rect width="0.976" height="22.681" transform="translate(3.742 12.438)" fill="current-color"/><path d="M4.717,0H3.742s.119,1.023-.262,1.436S.934.984.327,1.463s-.373,1.4.725,1.891a4.4,4.4,0,0,0,3.112.331C4.873,3.369,4.717,0,4.717,0Z" transform="translate(0 35.363)" fill="current-color"/></g></g></g></svg>