<?xml version="1.0" standalone="no"?>
<!DOCTYPE svg PUBLIC "-//W3C//DTD SVG 20010904//EN"
 "http://www.w3.org/TR/2001/REC-SVG-20010904/DTD/svg10.dtd">
<svg version="1.0" xmlns="http://www.w3.org/2000/svg"
 width="1024.000000pt" height="1024.000000pt" viewBox="0 0 1024.000000 1024.000000"
 preserveAspectRatio="xMidYMid meet">
<metadata>
Created by potrace 1.11, written by Peter Selinger 2001-2013
</metadata>
<g transform="translate(0.000000,1024.000000) scale(0.100000,-0.100000)"
fill="#000000" stroke="none">
<path d="M3220 8160 c-63 -37 -114 -72 -113 -77 1 -5 34 -65 74 -133 39 -69
80 -141 91 -160 28 -48 261 -452 436 -755 80 -137 156 -270 170 -295 14 -25
31 -54 38 -65 8 -11 14 -24 14 -30 0 -6 -39 -32 -87 -57 -49 -25 -115 -60
-148 -78 -33 -18 -96 -51 -140 -75 -328 -175 -499 -267 -505 -272 -2 -2 -4
-88 -5 -191 l0 -186 -40 -7 c-22 -4 -62 -10 -90 -13 -54 -7 -242 -40 -345 -61
-14 -2 -41 -7 -60 -10 -19 -3 -43 -8 -52 -11 -9 -3 -27 -7 -40 -9 -111 -22
-430 -91 -553 -121 -11 -3 -31 -7 -45 -10 -14 -3 -133 -34 -265 -70 -256 -70
-270 -77 -307 -148 -25 -48 -23 -60 47 -312 59 -216 62 -230 43 -231 -19 -1
-258 -50 -378 -78 -13 -3 -166 -40 -213 -51 -9 -2 -25 -6 -35 -8 -42 -10 -303
-79 -367 -98 -99 -28 -127 -43 -153 -81 -42 -63 -39 -89 42 -385 42 -150 87
-314 100 -365 14 -51 43 -159 66 -242 23 -82 43 -157 45 -166 2 -9 12 -47 23
-85 11 -38 32 -114 47 -169 50 -187 63 -218 101 -247 61 -46 97 -45 304 12
196 54 296 79 610 151 51 12 327 67 379 75 18 3 43 8 55 10 11 2 37 7 56 10
19 2 46 7 60 9 14 3 43 7 65 10 22 4 65 10 95 15 30 5 75 12 100 15 25 3 56 7
70 10 14 2 45 7 70 10 25 3 56 7 70 10 14 2 54 7 90 10 36 3 81 8 100 10 54 7
118 13 200 21 109 10 134 12 245 19 55 4 120 8 145 11 25 2 131 6 236 10 l191
6 94 -62 c52 -35 97 -66 102 -70 4 -3 -38 -84 -93 -180 -55 -95 -100 -175
-100 -177 0 -2 -13 -24 -30 -48 -16 -24 -30 -46 -30 -48 0 -3 -24 -47 -54 -98
l-55 -93 77 -46 c75 -46 77 -46 92 -27 14 18 213 359 264 452 57 103 89 155
97 160 4 3 61 -21 126 -54 65 -33 154 -76 198 -96 151 -69 324 -145 330 -145
3 0 30 -11 58 -24 29 -12 90 -38 137 -56 47 -18 89 -37 94 -42 17 -14 42 -9
111 22 37 16 71 30 77 30 5 0 35 12 66 26 31 14 66 29 77 34 11 4 45 18 75 30
30 13 84 36 120 52 36 17 108 50 160 73 53 24 149 71 214 104 66 34 120 60
122 58 2 -2 68 -113 145 -248 78 -134 155 -266 171 -294 16 -27 34 -60 40 -72
6 -13 16 -23 21 -23 5 0 43 19 83 42 l74 42 -26 45 c-15 25 -38 66 -52 91 -14
25 -72 126 -130 225 -115 197 -162 281 -162 288 0 2 43 32 96 67 l96 62 87 -1
c150 -4 283 -9 381 -16 52 -4 113 -8 135 -10 135 -9 241 -17 258 -21 11 -2 57
-6 101 -9 45 -3 88 -8 96 -10 8 -2 44 -6 80 -10 36 -3 76 -8 90 -10 14 -2 50
-7 80 -10 30 -3 66 -8 80 -10 33 -6 75 -12 130 -20 25 -3 59 -9 75 -11 17 -3
39 -7 50 -9 103 -15 237 -38 265 -45 19 -5 53 -11 75 -15 66 -10 93 -15 178
-34 45 -10 100 -22 122 -27 22 -4 42 -8 45 -9 3 0 50 -11 105 -24 116 -27 316
-78 477 -122 159 -43 180 -45 231 -20 48 24 82 68 95 126 5 22 28 105 50 185
22 80 50 179 61 220 11 41 78 290 150 553 72 263 131 489 131 503 0 53 -41
117 -90 141 -35 17 -346 103 -460 128 -8 1 -35 8 -60 15 -25 7 -52 14 -60 15
-8 2 -98 22 -200 45 -102 22 -217 47 -256 56 l-72 15 15 47 c8 26 16 54 18 62
2 8 22 81 44 162 55 198 57 247 14 299 -27 32 -85 64 -133 72 -14 3 -99 25
-190 50 -91 25 -194 52 -230 60 -98 24 -202 48 -229 53 -12 3 -52 12 -88 20
-61 14 -375 80 -433 90 -130 24 -304 54 -340 59 -25 3 -73 11 -107 17 l-63 10
0 189 c0 104 -4 189 -8 189 -4 0 -107 53 -227 118 -121 65 -265 142 -320 171
-55 30 -150 80 -212 113 l-111 60 17 32 c10 17 52 90 93 161 42 72 85 146 95
165 11 19 62 107 113 195 51 88 104 180 118 205 28 51 108 187 122 210 6 8 13
21 16 28 4 8 64 113 135 234 70 122 126 225 124 229 -3 4 -40 27 -83 52 -42
25 -93 54 -113 66 l-37 22 -41 -72 c-23 -39 -41 -73 -41 -75 0 -3 -8 -17 -19
-32 -10 -15 -54 -90 -99 -167 -44 -77 -155 -270 -248 -430 -92 -159 -216 -375
-276 -480 -60 -104 -114 -194 -118 -199 -6 -6 -28 1 -57 16 -27 14 -84 45
-128 68 -44 24 -107 57 -140 75 -101 55 -196 105 -295 158 -52 28 -130 70
-174 94 -43 23 -82 43 -87 43 -4 0 -14 8 -21 18 -14 19 -45 23 -56 6 -7 -11
-59 -40 -247 -139 -60 -32 -114 -61 -120 -65 -5 -4 -68 -38 -140 -75 -71 -38
-143 -76 -160 -85 -16 -9 -73 -40 -126 -69 l-97 -52 -25 43 c-13 24 -34 59
-45 78 -10 19 -43 76 -72 125 -29 50 -61 106 -72 125 -19 33 -104 180 -476
825 -79 138 -147 253 -151 257 -3 3 -58 -24 -121 -62z m-175 -3300 l1 -589
-41 -7 c-22 -3 -47 -8 -56 -9 -9 -2 -32 -6 -50 -9 -204 -34 -774 -163 -975
-221 -23 -7 -20 -14 -64 150 -10 39 -37 138 -60 220 -23 83 -48 173 -55 200
-8 28 -26 93 -40 145 -15 52 -35 127 -45 165 -10 39 -29 109 -43 158 l-24 87
41 11 c23 5 75 20 116 31 41 11 80 21 85 23 30 6 76 18 125 30 70 18 316 74
355 81 17 2 71 13 120 24 83 17 354 68 400 75 11 1 40 6 65 10 118 19 135 21
140 17 3 -2 5 -269 5 -592z m4225 585 c14 -3 39 -7 55 -9 87 -12 231 -39 640
-121 22 -5 106 -24 240 -56 50 -11 101 -23 114 -26 14 -2 28 -6 31 -8 4 -2 20
-7 36 -9 36 -7 246 -64 249 -68 2 -3 -89 -340 -231 -853 -71 -259 -77 -275
-93 -270 -156 46 -845 201 -981 221 -19 2 -46 7 -60 10 -14 3 -36 8 -50 10
-14 2 -35 6 -47 9 l-23 5 0 591 0 592 48 -7 c26 -3 58 -8 72 -11z m-5807
-1043 c15 -59 79 -294 152 -557 28 -99 47 -131 93 -158 35 -21 31 -20 232 -58
85 -16 166 -31 180 -34 14 -3 39 -7 55 -10 83 -15 142 -26 165 -30 14 -3 52
-10 85 -16 122 -21 259 -49 263 -54 3 -3 -12 -5 -34 -6 -21 0 -48 -2 -59 -4
-11 -2 -42 -6 -70 -9 -27 -2 -84 -9 -125 -15 -41 -6 -93 -14 -115 -17 -22 -3
-67 -9 -100 -14 -33 -5 -78 -12 -100 -16 -34 -5 -364 -65 -445 -80 -101 -20
-501 -112 -640 -148 l-170 -43 -15 53 c-30 108 -44 160 -59 214 -8 30 -40 147
-71 260 -31 113 -58 212 -60 220 -2 8 -26 96 -53 195 -28 99 -47 183 -43 187
3 3 110 32 236 62 353 87 390 95 549 127 55 11 102 21 104 24 13 13 30 -14 45
-73z m7482 43 c176 -36 607 -139 695 -165 57 -17 70 -24 66 -38 -15 -50 -52
-185 -130 -472 -70 -256 -78 -285 -82 -300 -7 -29 -85 -315 -89 -327 -3 -8
-31 -4 -97 14 -393 104 -1012 231 -1363 278 -16 2 -52 7 -80 11 -80 12 -150
20 -242 30 -35 3 -63 11 -63 17 0 6 3 8 6 5 3 -3 20 -2 37 3 18 4 48 11 67 14
49 8 140 24 170 30 14 3 39 8 55 11 44 7 281 51 430 79 199 37 226 50 260 115
7 14 54 180 106 370 85 315 102 365 119 355 3 -2 64 -15 135 -30z m-5775 -557
c24 -40 58 -94 76 -119 19 -26 34 -50 34 -54 0 -4 -15 -4 -32 -1 -18 4 -42 9
-53 11 -10 3 -58 11 -105 20 -47 8 -96 17 -110 20 -14 3 -39 7 -55 9 -17 3
-42 7 -55 10 -14 3 -38 8 -55 11 -66 12 -201 37 -215 40 -8 2 -21 4 -29 4 -20
1 -10 9 19 15 14 3 68 14 120 26 52 11 109 23 125 26 40 8 278 52 286 53 4 1
26 -32 49 -71z m4060 48 c47 -9 95 -17 106 -20 12 -2 38 -7 58 -10 19 -3 57
-11 83 -17 27 -6 59 -13 73 -15 14 -3 50 -10 80 -17 l55 -13 -80 -14 c-44 -7
-84 -14 -90 -16 -5 -1 -26 -5 -45 -9 -184 -33 -428 -79 -485 -90 -38 -8 -71
-13 -73 -11 -2 2 26 48 62 102 35 55 70 112 77 127 15 32 17 32 179 3z"/>
<path d="M2815 2478 c-111 -64 -108 -225 7 -373 101 -129 219 -231 339 -291
96 -48 150 -51 203 -11 76 58 185 207 303 411 l63 109 -76 44 c-42 24 -79 43
-83 43 -3 0 -20 -26 -38 -58 -51 -94 -125 -156 -173 -147 -29 6 -121 61 -157
94 -44 42 -194 151 -234 172 -61 31 -108 33 -154 7z"/>
<path d="M7253 2476 c-41 -20 -218 -145 -233 -166 -3 -4 -36 -28 -73 -54 -65
-44 -76 -48 -112 -48 -8 0 -21 0 -28 1 -23 2 -97 83 -130 143 -18 32 -35 58
-38 58 -14 0 -149 -83 -149 -93 0 -31 182 -322 261 -417 122 -148 160 -157
313 -77 181 94 360 286 401 430 48 167 -68 289 -212 223z"/>
</g>
</svg>
