<svg xmlns="http://www.w3.org/2000/svg" width="24.983" height="35.403" viewBox="0 0 24.983 35.403">
  <path id="Icon_metro-bin" data-name="Icon metro-bin" d="M6.42,12.991V35.118a2.089,2.089,0,0,0,1.922,2.213h17.3a2.089,2.089,0,0,0,1.922-2.213V12.991H6.42Zm5.765,19.914H10.264V17.417h1.922Zm3.844,0H14.108V17.417h1.922Zm3.844,0H17.951V17.417h1.922Zm3.844,0H21.795V17.417h1.922ZM28.04,6.353H21.795V3.588a1.567,1.567,0,0,0-1.441-1.659H13.627a1.567,1.567,0,0,0-1.441,1.659V6.353H5.94A1.567,1.567,0,0,0,4.5,8.013v2.766H29.482V8.013A1.567,1.567,0,0,0,28.04,6.353Zm-8.167,0H14.108V4.168h5.765V6.353Z" transform="translate(-4.499 -1.928)" fill="#004871"/>
</svg>
